<svg width="512" height="512" viewBox="0 0 40 40" fill="none" xmlns="http://www.w3.org/2000/svg"><path d="M0 20C0 8.95431 8.95431 0 20 0C31.0457 0 40 8.95431 40 20C40 31.0457 31.0457 40 20 40C8.95431 40 0 31.0457 0 20Z" fill="#1AA11F"/><path d="M20 14V26M23 17.5C23 16.12 21.657 15 20 15C18.343 15 17 16.12 17 17.5C17 18.88 18.343 20 20 20C21.657 20 23 21.12 23 22.5C23 23.88 21.657 25 20 25C18.343 25 17 23.88 17 22.5M30 20C30 25.5228 25.5228 30 20 30C14.4772 30 10 25.5228 10 20C10 14.4772 14.4772 10 20 10C25.5228 10 30 14.4772 30 20Z" stroke="white" stroke-width="1.67" stroke-linecap="round"/></svg>
